<?xml version="1.0" standalone="no"?><!DOCTYPE svg PUBLIC "-//W3C//DTD SVG 1.1//EN" "http://www.w3.org/Graphics/SVG/1.1/DTD/svg11.dtd"><svg t="1723650984386" class="icon" viewBox="0 0 1030 1024" version="1.1" xmlns="http://www.w3.org/2000/svg" p-id="5629" width="32.1875" height="32" xmlns:xlink="http://www.w3.org/1999/xlink"><path d="M836.266667 85.333333c-27.306667 0-47.786667 13.653333-68.266667 37.546667-3.413333 3.413333-3.413333 6.826667-3.413333 13.653333 0 3.413333 3.413333 10.24 6.826666 10.24 105.813333 81.92 180.906667 194.56 221.866667 337.92 3.413333 6.826667 10.24 13.653333 17.066667 13.653334h3.413333c6.826667 0 13.653333-6.826667 13.653333-17.066667 0-27.306667 3.413333-51.2 3.413334-78.506667-6.826667-204.8-133.12-317.44-194.56-317.44z" p-id="5630" fill="#1296db"></path><path d="M358.4 221.866667m-17.066667 0a17.066667 17.066667 0 1 0 34.133334 0 17.066667 17.066667 0 1 0-34.133334 0Z" p-id="5631" fill="#1296db"></path><path d="M665.6 546.133333c-51.2 0-98.986667 10.24-139.946667 30.72-23.893333 10.24-47.786667 23.893333-64.853333 40.96-6.826667 3.413333-13.653333 10.24-17.066667 13.653334l-17.066666 17.066666c-3.413333 6.826667-10.24 10.24-13.653334 17.066667-3.413333 6.826667-6.826667 10.24-10.24 17.066667-3.413333 6.826667-6.826667 10.24-10.24 17.066666-13.653333 17.066667-17.066667 34.133333-17.066666 51.2 0 3.413333 0 6.826667-3.413334 10.24l17.066667 17.066667c10.24 17.066667 30.72 30.72 51.2 47.786667-23.893333-6.826667-47.786667-13.653333-68.266667-17.066667-6.826667-17.066667-17.066667-23.893333-30.72-23.893333-20.48 0-34.133333 13.653333-34.133333 34.133333s13.653333 34.133333 34.133333 34.133333c10.24 0 20.48-6.826667 27.306667-13.653333 30.72 6.826667 68.266667 17.066667 98.986667 30.72-37.546667 6.826667-78.506667 13.653333-109.226667 23.893333-3.413333-3.413333-10.24-6.826667-17.066667-6.826666-20.48 0-34.133333 13.653333-34.133333 34.133333s13.653333 34.133333 34.133333 34.133333c17.066667 0 34.133333-13.653333 34.133334-34.133333 27.306667-10.24 75.093333-17.066667 119.466666-23.893333-30.72 17.066667-54.613333 37.546667-78.506666 58.026666H409.6c-20.48 0-34.133333 13.653333-34.133333 34.133334s13.653333 34.133333 34.133333 34.133333 34.133333-13.653333 34.133333-34.133333c0-3.413333 0-6.826667-3.413333-10.24C532.48 894.293333 737.28 819.2 785.066667 819.2c13.653333 0 34.133333 3.413333 58.026666 6.826667 51.2 10.24 105.813333 17.066667 133.12-3.413334 6.826667-6.826667 17.066667-17.066667 17.066667-37.546666v-13.653334c-17.066667-75.093333-136.533333-225.28-327.68-225.28z" p-id="5632" fill="#1296db"></path><path d="M307.2 740.693333c3.413333 6.826667 10.24 10.24 13.653333 10.24h3.413334c3.413333 0 10.24-3.413333 13.653333-3.413333l6.826667-6.826667c0-10.24 3.413333-20.48 6.826666-30.72v-3.413333c3.413333-10.24 6.826667-20.48 13.653334-30.72 27.306667-51.2 75.093333-95.573333 139.946666-126.293333 13.653333-6.826667 30.72-13.653333 44.373334-17.066667 37.546667-13.653333 78.506667-20.48 119.466666-20.48 153.6 0 266.24 85.333333 320.853334 170.666667C952.32 167.253333 587.093333 81.92 512 68.266667c-13.653333-27.306667-47.786667-68.266667-85.333333-68.266667-30.72 0-61.44 23.893333-75.093334 34.133333h-23.893333C208.213333 34.133333 68.266667 47.786667 68.266667 119.466667c0 6.826667 0 13.653333 3.413333 23.893333v6.826667c3.413333 6.826667 3.413333 17.066667 10.24 23.893333 3.413333 10.24 10.24 20.48 13.653333 30.72 0 3.413333 3.413333 3.413333 3.413334 6.826667 6.826667 6.826667 13.653333 17.066667 20.48 27.306666 54.613333 75.093333 143.36 153.6 235.52 170.666667 10.24 3.413333 13.653333 10.24 13.653333 20.48 0 6.826667-10.24 13.653333-17.066667 13.653333h-3.413333c-105.813333-20.48-204.8-105.813333-262.826667-191.146666-10.24 10.24-17.066667 20.48-17.066666 37.546666 0 54.613333 139.946667 197.973333 242.346666 235.52-13.653333 20.48-27.306667 51.2-34.133333 88.746667-30.72-47.786667-71.68-95.573333-112.64-102.4-10.24-17.066667-34.133333-58.026667-64.853333-75.093333 0-17.066667-13.653333-27.306667-30.72-27.306667-20.48 0-34.133333 13.653333-34.133334 34.133333s13.653333 34.133333 34.133334 34.133334c6.826667 0 17.066667-3.413333 20.48-6.826667 13.653333 10.24 30.72 34.133333 40.96 51.2l-68.266667 6.826667c-6.826667-10.24-17.066667-17.066667-27.306667-17.066667-20.48 0-34.133333 13.653333-34.133333 34.133333s13.653333 34.133333 34.133333 34.133334c13.653333 0 23.893333-6.826667 30.72-20.48l64.853334-6.826667c-13.653333 17.066667-27.306667 40.96-37.546667 61.44-13.653333 6.826667-23.893333 17.066667-23.893333 34.133333 0 20.48 13.653333 34.133333 34.133333 34.133334s34.133333-13.653333 34.133333-34.133334c0-10.24-3.413333-17.066667-10.24-23.893333 10.24-23.893333 30.72-51.2 47.786667-71.68 47.786667 23.893333 105.813333 122.88 133.12 187.733333zM358.4 273.066667C331.093333 273.066667 307.2 249.173333 307.2 221.866667S331.093333 170.666667 358.4 170.666667s51.2 23.893333 51.2 51.2S385.706667 273.066667 358.4 273.066667z" p-id="5633" fill="#1296db"></path></svg>